HIERARCHY
ROOT SpineBase
{
  OFFSET 0.000000 0.000000 0.000000
  CHANNELS 6 Xposition Yposition Zposition Zrotation Xrotation Yrotation
  JOINT SpineMid
  {
    OFFSET 0.000000 36.262809 0.000000
    CHANNELS 3 Zrotation Xrotation Yrotation
    JOINT SpineShoulder
    {
      OFFSET -0.324309 26.860676 -0.822303
      CHANNELS 3 Zrotation Xrotation Yrotation
      JOINT Neck
      {
        OFFSET -0.263021 8.947002 -0.303541
        CHANNELS 3 Zrotation Xrotation Yrotation
        JOINT Head
        {
          OFFSET -3.442172 11.961747 2.469016
          CHANNELS 3 Zrotation Xrotation Yrotation
          End Site
          {
            OFFSET 0 0 0
          }
        }
      }
      JOINT ShoulderLeft
      {
        OFFSET -9.427260 -25.847042 -7.313100
        CHANNELS 3 Zrotation Xrotation Yrotation
        JOINT ElbowLeft
        {
          OFFSET -6.237209 -18.557510 -0.556147
          CHANNELS 3 Zrotation Xrotation Yrotation
          JOINT WristLeft
          {
            OFFSET 9.619387 22.259511 -4.560833
            CHANNELS 3 Zrotation Xrotation Yrotation
            JOINT HandLeft
            {
              OFFSET 1.407675 2.736693 0.360496
              CHANNELS 3 Zrotation Xrotation Yrotation
              JOINT HandTipLeft
              {
                OFFSET 5.095145 9.563280 -1.467095
                CHANNELS 3 Zrotation Xrotation Yrotation
                End Site
                {
                  OFFSET 0 0 0
                }
              }
              JOINT ThumbLeft
              {
                OFFSET -6.810513 -0.526904 0.427861
                CHANNELS 3 Zrotation Xrotation Yrotation
                End Site
                {
                  OFFSET 0 0 0
                }
              }
            }
          }
        }
      }
      JOINT ShoulderRight
      {
        OFFSET 4.166932 -2.938890 -12.127492
        CHANNELS 3 Zrotation Xrotation Yrotation
        JOINT ElbowRight
        {
          OFFSET 8.109107 -20.793925 -4.895039
          CHANNELS 3 Zrotation Xrotation Yrotation
          JOINT WristRight
          {
            OFFSET -14.595930 -15.236683 -3.681809
            CHANNELS 3 Zrotation Xrotation Yrotation
            JOINT HandRight
            {
              OFFSET -1.603976 -3.154066 2.675846
              CHANNELS 3 Zrotation Xrotation Yrotation
              JOINT HandTipRight
              {
                OFFSET -3.991801 -5.779805 -4.551724
                CHANNELS 3 Zrotation Xrotation Yrotation
                End Site
                {
                  OFFSET 0 0 0
                }
              }
              JOINT ThumbRight
              {
                OFFSET -4.392101 3.228737 1.864305
                CHANNELS 3 Zrotation Xrotation Yrotation
                End Site
                {
                  OFFSET 0 0 0
                }
              }
            }
          }
        }
      }
    }
  }
  JOINT HipLeft
  {
    OFFSET -4.261306 -0.288704 -3.430693
    CHANNELS 3 Zrotation Xrotation Yrotation
    JOINT KneeLeft
    {
      OFFSET -0.002482 -21.269461 9.455194
      CHANNELS 3 Zrotation Xrotation Yrotation
      JOINT AnkleLeft
      {
        OFFSET 9.919107 -24.818811 4.916991
        CHANNELS 3 Zrotation Xrotation Yrotation
        JOINT FootLeft
        {
          OFFSET -4.153270 -2.735218 -7.617384
          CHANNELS 3 Zrotation Xrotation Yrotation
          End Site
          {
            OFFSET 0 0 0
          }
        }
      }
    }
  }
  JOINT HipRight
  {
    OFFSET 3.638160 3.029685 -2.684378
    CHANNELS 3 Zrotation Xrotation Yrotation
    JOINT KneeRight
    {
      OFFSET 9.253845 -18.160834 -10.068217
      CHANNELS 3 Zrotation Xrotation Yrotation
      JOINT AnkleRight
      {
        OFFSET 6.996960 -23.252140 5.612979
        CHANNELS 3 Zrotation Xrotation Yrotation
        JOINT FootRight
        {
          OFFSET -3.610625 11.565976 -3.820527
          CHANNELS 3 Zrotation Xrotation Yrotation
          End Site
          {
            OFFSET 0 0 0
          }
        }
      }
    }
  }
}
MOTION
Frames: 12
Frame Time: 0.033333
32.635007 42.559963 321.230009 0.597945 -9.767748 67.361238 -1.510104 -1.450315 -67.483946 -0.087257 -2.488351 -0.238091 37.031565 20.033084 -15.694205 0.000000 0.000000 0.000000 -1.378349 14.198278 0.546950 76.421700 42.057359 -55.774771 -27.142093 -50.677085 1.139857 26.790905 2.771359 16.774263 0.000000 0.000000 0.000000 0.000000 0.000000 0.000000 154.662660 -31.499889 -23.273358 102.234160 14.758149 -6.234673 -1.154844 2.180066 -80.286885 -54.252007 18.725447 133.004940 0.000000 0.000000 0.000000 0.000000 0.000000 0.000000 6.338280 29.498634 -78.124627 21.406315 -3.889840 10.597366 2.149270 22.778510 -17.964516 0.000000 0.000000 0.000000 -29.050183 -0.547360 -83.630202 -1.114136 39.853280 18.303731 -4.249859 -9.263377 -4.537843 0.000000 0.000000 0.000000
33.472198 41.342340 319.830890 1.168693 -6.893526 65.411350 -1.134422 -1.250047 -65.423520 -0.694542 -2.709834 -0.165263 47.714444 20.210497 -18.692170 0.000000 0.000000 0.000000 -1.195013 11.148991 0.406356 93.853952 39.855720 -70.127795 -36.511260 -53.662993 -7.660433 18.117746 0.075030 17.732071 0.000000 0.000000 0.000000 0.000000 0.000000 0.000000 158.883606 -42.307597 2.304958 80.601735 -19.683026 -20.162406 -1.224311 5.820389 -84.803031 -41.239927 -2.400174 140.855048 0.000000 0.000000 0.000000 0.000000 0.000000 0.000000 -6.520803 28.946121 -74.444325 23.281323 4.247864 10.540139 11.275278 23.375087 -37.313848 0.000000 0.000000 0.000000 -40.690278 -2.481426 -87.269456 1.472766 50.443973 21.426051 -4.096593 -12.371200 -4.392804 0.000000 0.000000 0.000000
32.732164 40.465040 318.794516 0.166594 -4.474317 61.596927 -0.442810 -1.074788 -61.659230 -0.178343 -2.724357 -0.150515 51.572572 21.637044 -18.522259 0.000000 0.000000 0.000000 -0.755304 8.096224 0.266928 101.032095 39.431002 -80.630067 9.267762 -62.275942 44.934268 -8.653920 10.649515 0.150271 0.000000 0.000000 0.000000 0.000000 0.000000 0.000000 161.559045 -41.672013 8.597779 62.224182 -32.754108 -32.833797 -10.787529 7.559739 -87.859229 -55.236275 -2.007370 161.398317 0.000000 0.000000 0.000000 0.000000 0.000000 0.000000 -16.141708 21.797593 -69.086255 21.040688 10.898454 8.820843 14.856993 18.621600 -43.468333 0.000000 0.000000 0.000000 -45.690386 -8.894884 -91.932106 -6.363058 55.029042 29.909319 -5.792605 -14.563691 -5.390621 0.000000 0.000000 0.000000
31.600787 40.088315 319.954337 0.393391 -6.907032 69.931881 -0.286355 -0.848638 -70.007208 -0.097024 -2.954877 -0.183698 49.930428 27.268937 -19.959112 0.000000 0.000000 0.000000 -1.050616 10.416662 0.368435 103.061531 38.086886 -80.406613 5.954653 -52.420866 33.623769 -18.485635 3.795668 2.681514 0.000000 0.000000 0.000000 0.000000 0.000000 0.000000 158.639852 -44.377419 7.645391 48.423343 -38.516728 -43.766024 -14.169262 3.740147 -89.053195 -58.953649 4.899073 168.366104 0.000000 0.000000 0.000000 0.000000 0.000000 0.000000 -6.057406 26.423580 -78.636170 21.395297 6.228923 9.408120 10.269491 18.706837 -32.063179 0.000000 0.000000 0.000000 -39.595285 -20.727721 -117.598782 -44.341220 34.021137 54.170349 2.714170 -17.490101 -3.199400 0.000000 0.000000 0.000000
32.468255 41.098760 320.973024 3.949013 -10.191414 82.822769 -0.176623 -0.003414 -82.468996 -0.441803 -4.013994 -0.138892 38.828735 34.407312 -17.952663 0.000000 0.000000 0.000000 -3.578892 14.364466 0.758113 99.410383 37.624224 -72.320993 -1.435155 -42.182362 15.678750 -13.320739 -2.583606 11.261595 0.000000 0.000000 0.000000 0.000000 0.000000 0.000000 150.416156 -47.183952 2.040215 48.496857 -40.378277 -45.427683 -40.006393 -2.727656 -95.228885 -64.558069 14.539746 -167.878336 0.000000 0.000000 0.000000 0.000000 0.000000 0.000000 6.377046 33.476890 -94.689595 23.690427 3.420784 10.488994 14.033977 -4.617905 -21.150006 0.000000 0.000000 0.000000 -41.667281 -30.845488 -147.061642 -65.888783 8.547605 56.834733 17.308383 -23.268628 2.809212 0.000000 0.000000 0.000000
33.833236 43.611272 323.401767 8.116044 -16.101837 126.425237 -0.496635 0.318294 -125.196286 -0.374933 -2.374407 -0.135105 19.911456 40.486078 -10.659710 0.000000 0.000000 0.000000 -7.919949 19.029942 1.637636 102.586933 32.966924 -62.218846 -5.820594 -40.958025 11.978015 -16.605542 4.042928 6.488773 0.000000 0.000000 0.000000 0.000000 0.000000 0.000000 140.547702 -39.935375 -20.329991 66.260372 -26.527911 -20.087541 -74.577562 -19.347582 -126.943943 -99.163916 26.374970 -148.453023 0.000000 0.000000 0.000000 0.000000 0.000000 0.000000 40.797658 17.695313 -141.816959 25.934166 -1.680329 12.057602 23.124810 -27.392119 27.169409 0.000000 0.000000 0.000000 -63.264859 -50.706292 149.253865 -87.224989 -27.108139 8.078219 35.095125 -22.747721 11.889160 0.000000 0.000000 0.000000
35.162063 41.851552 322.470686 12.268080 -20.565269 142.029943 0.039834 0.811548 -139.548013 -0.244973 -0.940253 -0.234550 -12.382474 40.007373 7.969408 0.000000 0.000000 0.000000 -11.589233 22.071354 2.554512 105.496020 29.479435 -53.444244 -20.992095 -46.582959 7.728510 -5.354810 17.913880 -4.631481 0.000000 0.000000 0.000000 0.000000 0.000000 0.000000 138.439540 -33.183623 -35.589092 71.646994 -17.298784 -6.053856 -31.562092 -10.020735 -101.812160 -43.071416 39.519987 160.501381 0.000000 0.000000 0.000000 0.000000 0.000000 0.000000 52.733017 2.209427 -150.529203 30.596293 -13.732759 11.618779 24.367806 -23.534484 41.354992 0.000000 0.000000 0.000000 -94.646655 -58.205076 107.435978 -100.239062 -33.438476 -25.520464 39.562053 -11.408479 14.914380 0.000000 0.000000 0.000000
34.947332 53.303774 326.254938 22.074986 -43.342643 143.743476 2.123902 0.388442 -134.403945 0.824961 1.199519 -1.156550 -36.517591 53.339809 25.790746 0.000000 0.000000 0.000000 -20.879687 40.826362 8.533529 108.487266 26.245897 -43.357332 -61.781286 -47.479896 -13.712173 43.313652 28.618369 -31.111639 0.000000 0.000000 0.000000 0.000000 0.000000 0.000000 128.667299 -36.746879 -65.355438 79.234744 -2.575531 8.638091 -29.355551 -16.278711 -103.979759 -37.111257 39.687307 149.749925 0.000000 0.000000 0.000000 0.000000 0.000000 0.000000 78.438617 -8.218406 -132.936942 23.688611 -18.419424 13.010962 40.109954 -35.732800 53.211787 0.000000 0.000000 0.000000 -157.544418 -69.114748 21.033114 -88.910634 -36.003121 -43.490511 45.913657 -4.239561 18.097874 0.000000 0.000000 0.000000
33.398783 63.537614 331.301792 27.399214 -63.735223 140.709792 2.258223 0.397010 -123.129068 1.579228 5.080208 -2.566639 -52.072632 63.518883 43.660616 0.000000 0.000000 0.000000 -25.477201 56.693787 15.206297 110.707319 23.869177 -33.810507 -94.749594 -31.942584 -28.778079 102.693407 18.132940 -66.874949 0.000000 0.000000 0.000000 0.000000 0.000000 0.000000 133.254341 -38.625665 -91.490404 87.355346 15.558032 21.784910 -23.539933 -16.974525 -100.668365 -22.609914 36.343933 135.504322 0.000000 0.000000 0.000000 0.000000 0.000000 0.000000 100.166942 -8.710453 -112.674680 15.648261 -23.965389 10.992083 41.928675 -39.646694 50.895942 0.000000 0.000000 0.000000 145.442210 -37.105529 -46.936932 -51.875669 -42.304919 -44.861356 55.585022 0.397546 21.589471 0.000000 0.000000 0.000000
31.222262 71.973947 333.805310 11.057978 -64.410404 107.179287 0.889098 0.329657 -100.613134 0.652890 4.409426 -1.666868 -28.501629 66.992974 26.619617 0.000000 0.000000 0.000000 -15.226637 59.740810 10.624996 112.133389 23.112651 -25.304014 -109.727328 -15.270561 -30.669262 140.203552 -4.683254 -105.006203 0.000000 0.000000 0.000000 0.000000 0.000000 0.000000 161.463267 -28.190324 -105.227139 100.296844 43.265189 31.491772 -17.952498 -16.076890 -95.219447 -6.615410 25.656916 125.757071 0.000000 0.000000 0.000000 0.000000 0.000000 0.000000 95.507127 2.636692 -102.369656 2.836803 -23.136863 4.581670 38.976664 -42.144553 34.072548 0.000000 0.000000 0.000000 107.897803 2.831925 -71.548911 -7.172859 -34.104017 -25.942888 72.987829 -15.561629 30.980390 0.000000 0.000000 0.000000
29.279893 77.761260 334.222036 4.629125 -52.187216 81.535220 -0.317795 -0.355800 -79.955776 -1.950269 1.452137 -0.052614 -11.890651 56.158408 12.334888 0.000000 0.000000 0.000000 -5.088559 51.748871 4.112983 113.036164 22.064498 -21.217639 -105.978823 -9.524378 -29.933138 119.288139 34.287109 167.199866 0.000000 0.000000 0.000000 0.000000 0.000000 0.000000 175.689132 0.534465 -122.501464 143.711523 65.951377 7.865159 -15.915802 -19.882591 -94.610326 10.725511 21.639072 107.525519 0.000000 0.000000 0.000000 0.000000 0.000000 0.000000 82.069220 18.684596 -96.234058 -2.960147 -21.808207 1.694508 31.207160 -38.505014 27.761511 0.000000 0.000000 0.000000 68.080599 31.912630 -71.332290 15.246838 -15.395525 -14.693904 91.942684 -49.040801 52.244033 0.000000 0.000000 0.000000
28.232299 80.541838 333.397672 5.635886 -32.041751 63.982798 -0.119283 -0.000100 -62.583349 -4.934718 -4.325881 0.580744 -4.826616 37.949711 5.112701 0.000000 0.000000 0.000000 -0.402734 36.456983 1.242369 114.016170 21.368492 -21.649347 -97.139048 -6.612178 -33.149626 131.930862 63.333151 117.377885 0.000000 0.000000 0.000000 0.000000 0.000000 0.000000 163.275127 69.906060 -134.552401 -144.835199 29.153035 -28.123762 -14.803286 -27.432266 -96.055396 24.960091 14.254254 92.680012 0.000000 0.000000 0.000000 0.000000 0.000000 0.000000 56.890623 32.225767 -82.622807 -4.798439 -21.064865 0.802323 25.666228 -33.458034 7.672653 0.000000 0.000000 0.000000 16.836601 36.846258 -49.789026 22.289784 1.247353 -9.566339 91.304948 -59.980734 56.255585 0.000000 0.000000 0.000000
